<svg width="172" height="172" viewBox="0 0 172 172" fill="none" xmlns="http://www.w3.org/2000/svg">
<rect width="172" height="172" rx="10" fill="url(#paint0_linear_9012_6)"/>
<path d="M37.5775 90.32C35.2735 90.32 33.4602 89.68 32.1375 88.4C30.8148 87.12 30.1535 85.3813 30.1535 83.184H33.5775C33.5775 84.4853 33.9295 85.4987 34.6335 86.224C35.3375 86.928 36.3188 87.28 37.5775 87.28C38.8362 87.28 39.8175 86.928 40.5215 86.224C41.2255 85.4987 41.5775 84.496 41.5775 83.216V69.808H36.0735V66.64H45.0015V83.216C45.0015 85.4133 44.3295 87.152 42.9855 88.432C41.6628 89.6907 39.8602 90.32 37.5775 90.32ZM55.965 90.32C54.1303 90.32 52.6797 89.8507 51.613 88.912C50.5677 87.952 50.045 86.6507 50.045 85.008C50.045 83.344 50.5997 82.0427 51.709 81.104C52.8397 80.144 54.3863 79.664 56.349 79.664H61.245V78.032C61.245 77.072 60.9463 76.3253 60.349 75.792C59.7517 75.2587 58.909 74.992 57.821 74.992C56.861 74.992 56.061 75.2053 55.421 75.632C54.781 76.0373 54.4077 76.5813 54.301 77.264H50.909C51.101 75.6853 51.8263 74.4267 53.085 73.488C54.365 72.5493 55.9757 72.08 57.917 72.08C60.0077 72.08 61.661 72.6133 62.877 73.68C64.093 74.7253 64.701 76.1547 64.701 77.968V90H61.341V86.768H60.765L61.341 86.128C61.341 87.408 60.8503 88.432 59.869 89.2C58.8877 89.9467 57.5863 90.32 55.965 90.32ZM56.989 87.664C58.2263 87.664 59.2397 87.3547 60.029 86.736C60.8397 86.096 61.245 85.2853 61.245 84.304V82H56.413C55.517 82 54.8023 82.2453 54.269 82.736C53.757 83.2267 53.501 83.8987 53.501 84.752C53.501 85.648 53.8103 86.3627 54.429 86.896C55.0477 87.408 55.901 87.664 56.989 87.664ZM74.6405 90L68.8165 72.4H72.3365L75.9525 83.664C76.1872 84.3253 76.3898 84.9973 76.5605 85.68C76.7525 86.3413 76.8912 86.864 76.9765 87.248C77.0832 86.864 77.2218 86.3413 77.3925 85.68C77.5845 84.9973 77.7765 84.3253 77.9685 83.664L81.5205 72.4H85.0085L79.1845 90H74.6405ZM94.34 90.32C92.5053 90.32 91.0547 89.8507 89.988 88.912C88.9427 87.952 88.42 86.6507 88.42 85.008C88.42 83.344 88.9747 82.0427 90.084 81.104C91.2147 80.144 92.7613 79.664 94.724 79.664H99.62V78.032C99.62 77.072 99.3213 76.3253 98.724 75.792C98.1267 75.2587 97.284 74.992 96.196 74.992C95.236 74.992 94.436 75.2053 93.796 75.632C93.156 76.0373 92.7827 76.5813 92.676 77.264H89.284C89.476 75.6853 90.2013 74.4267 91.46 73.488C92.74 72.5493 94.3507 72.08 96.292 72.08C98.3827 72.08 100.036 72.6133 101.252 73.68C102.468 74.7253 103.076 76.1547 103.076 77.968V90H99.716V86.768H99.14L99.716 86.128C99.716 87.408 99.2253 88.432 98.244 89.2C97.2627 89.9467 95.9613 90.32 94.34 90.32ZM95.364 87.664C96.6013 87.664 97.6147 87.3547 98.404 86.736C99.2147 86.096 99.62 85.2853 99.62 84.304V82H94.788C93.892 82 93.1773 82.2453 92.644 82.736C92.132 83.2267 91.876 83.8987 91.876 84.752C91.876 85.648 92.1853 86.3627 92.804 86.896C93.4227 87.408 94.276 87.664 95.364 87.664ZM108.28 90V66.64H112.632L119.448 86.064C119.405 85.4453 119.352 84.7093 119.288 83.856C119.224 83.0027 119.17 82.1173 119.128 81.2C119.106 80.2827 119.096 79.4507 119.096 78.704V66.64H122.296V90H117.944L111.16 70.576C111.202 71.1307 111.245 71.824 111.288 72.656C111.352 73.488 111.394 74.352 111.416 75.248C111.458 76.144 111.48 76.976 111.48 77.744V90H108.28ZM127.467 90V66.64H131.819L138.635 86.064C138.592 85.4453 138.539 84.7093 138.475 83.856C138.411 83.0027 138.358 82.1173 138.315 81.2C138.294 80.2827 138.283 79.4507 138.283 78.704V66.64H141.483V90H137.131L130.347 70.576C130.39 71.1307 130.432 71.824 130.475 72.656C130.539 73.488 130.582 74.352 130.603 75.248C130.646 76.144 130.667 76.976 130.667 77.744V90H127.467Z" fill="white"/>
<path d="M77.6054 119L73.2374 105.8H75.8774L78.5894 114.248C78.7654 114.744 78.9174 115.248 79.0454 115.76C79.1894 116.256 79.2934 116.648 79.3574 116.936C79.4374 116.648 79.5414 116.256 79.6694 115.76C79.8134 115.248 79.9574 114.744 80.1014 114.248L82.7654 105.8H85.3814L81.0134 119H77.6054ZM88.588 119V116.696H93.244V103.736L88.564 107.216V104.408L92.572 101.48H95.836V116.696H99.604V119H88.588Z" fill="white"/>
<defs>
<linearGradient id="paint0_linear_9012_6" x1="21.5" y1="0" x2="86" y2="172" gradientUnits="userSpaceOnUse">
<stop stop-color="#5899BA"/>
<stop offset="1" stop-color="#284554"/>
</linearGradient>
</defs>
</svg>
